<?xml version="1.0" encoding="utf-8"?>
<!-- Generator: Adobe Illustrator 27.7.0, SVG Export Plug-In . SVG Version: 6.00 Build 0)  -->
<svg version="1.1" id="_レイヤー_2" xmlns="http://www.w3.org/2000/svg" xmlns:xlink="http://www.w3.org/1999/xlink" x="0px"
	 y="0px" viewBox="0 0 48 48" style="enable-background:new 0 0 48 48;" xml:space="preserve">
<style type="text/css">
	.st0{fill:#006AB6;}
	.st1{fill:#231815;}
	.st2{fill:#FFFFFF;}
</style>
<g id="_レイヤー_1-2">
	<g>
		<g>
			<path class="st0" d="M19.1,9.1c1.1,0.2,1.9,0.7,2.9,1.3c3.7-2.7,8.3-2.2,13.3-0.5c-6.8-4.1-15.8-3.7-21.8,0
				C15.1,9.3,17.5,8.8,19.1,9.1z"/>
			<path class="st1" d="M22.3,17.4c0.4-1.6,0.8-3,0.8-3h-3.6c-0.9,3.5-2.6,8.1-5.1,10.7l1,4.9c2.8-3,3.9-4.4,5.7-9h7.2
				c-1.3,9.2-4.7,13.9-10,15.5l0.9,4.5l0,0c9.8-2.8,12.3-13.7,13.2-23.6L22.3,17.4L22.3,17.4z"/>
		</g>
		<g>
			<path class="st2" d="M0,18.7c0-6.6,0-9.9,1.3-12.5c1.1-2.1,2.8-3.9,5-5C8.8,0,12.1,0,18.7,0h10.5c6.6,0,9.9,0,12.5,1.3
				c2.1,1.1,3.9,2.8,5,5C48,8.8,48,12.1,48,18.7v10.5c0,6.6,0,9.9-1.3,12.5c-1.1,2.1-2.8,3.9-5,5C39.2,48,35.9,48,29.3,48H18.7
				c-6.6,0-9.9,0-12.5-1.3c-2.1-1.1-3.9-2.8-5-5C0,39.2,0,35.9,0,29.3C0,29.3,0,18.7,0,18.7z"/>
			<g>
				<path class="st0" d="M19.1,9.1c1.1,0.2,1.9,0.7,2.9,1.3c3.7-2.7,8.3-2.2,13.3-0.5c-6.8-4.1-15.8-3.7-21.8,0
					C15.1,9.3,17.5,8.8,19.1,9.1z"/>
				<path d="M22.3,17.4c0.4-1.6,0.8-3,0.8-3h-3.6c-0.9,3.5-2.6,8.1-5.1,10.7l1,4.9c2.8-3,3.9-4.4,5.7-9h7.2
					c-1.3,9.2-4.7,13.9-10,15.5l0.9,4.5l0,0c9.8-2.8,12.3-13.7,13.2-23.6L22.3,17.4L22.3,17.4z"/>
			</g>
		</g>
	</g>
</g>
</svg>
